<svg width="940" height="175" viewBox="0 0 940 175" fill="none" xmlns="http://www.w3.org/2000/svg">
<path d="M235 44.093H268.199C272.937 44.093 277.306 45.178 281.295 47.355C285.29 49.532 288.428 52.5 290.72 56.245C293.013 59.99 294.163 64.085 294.163 68.523C294.163 73.227 293.115 77.301 291.019 80.745C288.923 84.182 286.179 86.821 282.781 88.648V89.698C287.208 91.434 290.72 94.199 293.331 97.993C295.935 101.78 297.243 106.33 297.243 111.643C297.243 116.788 295.998 121.338 293.509 125.3C290.971 129.308 287.485 132.473 283.429 134.449C279.205 136.584 274.518 137.648 269.38 137.648H235V44.093ZM267.011 82.243C270.491 82.243 273.273 81.179 275.369 79.044C277.465 76.909 278.513 74.228 278.513 71.008C278.513 67.872 277.503 65.24 275.49 63.098C273.47 60.97 270.803 59.899 267.487 59.899H251.005V82.243H267.011ZM268.789 121.576C272.664 121.576 275.687 120.463 277.859 118.244C280.031 116.025 281.117 113.127 281.117 109.557C281.117 105.987 280.012 103.068 277.802 100.8C275.585 98.532 272.422 97.405 268.313 97.405H251.005V121.576H268.789ZM350.893 139.741C342.592 139.741 335.066 137.585 328.308 133.273C321.64 129.062 316.13 122.943 312.359 115.563C308.485 108.073 306.548 99.841 306.548 90.867C306.548 81.9 308.485 73.668 312.359 66.171C316.129 58.7946 321.637 52.678 328.301 48.468C335.072 44.156 342.592 42 350.899 42C359.194 42 366.727 44.156 373.485 48.468C380.15 52.6799 385.658 58.7991 389.427 66.178C393.301 73.668 395.238 81.9 395.238 90.867C395.238 99.841 393.301 108.073 389.427 115.563C385.658 122.942 380.15 129.061 373.485 133.273C366.727 137.585 359.188 139.741 350.893 139.741ZM350.893 123.011C355.912 123.067 360.857 121.672 365.234 118.965C369.548 116.303 373.101 112.366 375.492 107.597C377.982 102.718 379.226 97.139 379.226 90.867C379.226 84.595 377.982 79.023 375.492 74.144C373.101 69.3754 369.548 65.438 365.234 62.776C360.858 60.0663 355.913 58.6688 350.893 58.723C345.889 58.6622 340.959 60.0604 336.603 62.776C332.316 65.4537 328.788 69.3888 326.409 74.144C323.919 79.023 322.674 84.595 322.674 90.874C322.674 97.139 323.919 102.718 326.409 107.597C328.788 112.352 332.316 116.287 336.603 118.965C340.959 121.678 345.889 123.074 350.893 123.011ZM448.405 139.741C440.104 139.741 432.578 137.585 425.82 133.273C419.155 129.061 413.647 122.942 409.878 115.563C406.004 108.073 404.067 99.841 404.067 90.867C404.067 81.9 406.004 73.668 409.872 66.171C413.643 58.7937 419.153 52.677 425.82 48.468C432.578 44.156 440.111 42 448.405 42C456.707 42 464.233 44.156 470.991 48.468C477.656 52.6799 483.164 58.7991 486.933 66.178C490.807 73.668 492.744 81.9 492.744 90.867C492.744 99.841 490.807 108.073 486.939 115.563C483.169 122.943 477.658 129.062 470.991 133.273C464.233 137.585 456.7 139.741 448.405 139.741ZM448.405 123.011C453.427 123.069 458.374 121.673 462.753 118.965C467.064 116.302 470.615 112.365 473.004 107.597C475.494 102.718 476.739 97.139 476.739 90.867C476.739 84.595 475.494 79.023 473.004 74.144C470.615 69.3763 467.064 65.4391 462.753 62.776C458.375 60.0651 453.427 58.6676 448.405 58.723C443.401 58.6622 438.471 60.0604 434.115 62.776C429.829 65.4537 426.3 69.3888 423.921 74.144C421.431 79.023 420.186 84.595 420.186 90.874C420.186 97.139 421.431 102.718 423.921 107.597C426.302 112.353 429.833 116.288 434.121 118.965C438.476 121.677 443.404 123.073 448.405 123.011ZM507.028 44.1H523.034V84.21H523.986L555.045 44.1H574.372V45.143L543.676 83.811L577.579 136.605V137.648H558.017L532.65 97.797L523.046 110.208V137.648H507.041V44.093L507.028 44.1ZM595.623 42H616.253L638.774 107.73H639.727L662.243 42H682.993V135.555H667.108V89.432L668.061 73.885H667.108L645.526 135.555H633.077L611.381 73.885H610.435L611.387 89.432V135.562H595.617L595.623 42ZM727.731 42H746.112L778.002 135.555H760.339L753.226 113.211H720.739L713.625 135.555H695.962L727.731 42ZM748.011 97.013L740.542 73.493L737.455 62.251H736.509L733.429 73.493L725.839 97.013H748.011ZM791.08 42H822.024C827.556 42 832.478 43.26 836.784 45.787C841.09 48.314 844.431 51.821 846.8 56.308C849.176 60.788 850.357 65.87 850.357 71.533C850.357 77.539 848.642 82.873 845.2 87.535C841.802 92.165 837.309 95.6703 832.218 97.664L832.103 98.574L854.866 134.512V135.562H836.486L814.554 100.408H807.085V135.555H791.08V42ZM821.903 84.21C825.542 84.21 828.508 82.985 830.795 80.549C833.088 78.106 834.237 75.019 834.237 71.267C834.237 67.697 833.145 64.652 830.973 62.125C828.801 59.598 825.854 58.331 822.144 58.331H807.085V84.203L821.903 84.21ZM867.823 42H883.829V82.11H884.781L915.839 42H935.167V43.05L904.458 81.725L938.374 134.512V135.562H918.812L893.432 95.704L883.829 108.115V135.555H867.823V42Z" fill="white"/>
<path d="M79.3919 175C123.239 175 158.784 135.825 158.784 87.5C158.784 39.1751 123.239 0 79.3919 0C35.545 0 0 39.1751 0 87.5C0 135.825 35.545 175 79.3919 175Z" fill="#FDFDFD"/>
<g style="mix-blend-mode:exclusion">
<path fill-rule="evenodd" clip-rule="evenodd" d="M57.1621 63V133L79.6459 108.92L102.117 133V63C102.117 59.287 100.779 55.726 98.3964 53.1005C96.0142 50.475 92.7832 49 89.4143 49H69.8648C66.4958 49 63.2649 50.475 60.8826 53.1005C58.5004 55.726 57.1621 59.287 57.1621 63Z" fill="white" fill-opacity="0.95"/>
</g>
</svg>
